{"title":"Later, With Jools Holland.s36eo5.(14th May 2010)[DTV-RIP-Divx]","uid":5563574,"size":732722243,"categoryP":"video","categoryS":"music_videos","magnet":"?xt=urn:btih:1ec32aa9d7ea732cdda39fc6f05e56f02d0d88e4&amp;dn=Later%2C+With+Jools+Holland.s36eo5.%2814th+May+2010%29%5BDTV-RIP-Divx%5D&amp;tr=udp%3A%2F%2Ftracker.openbittorrent.com%3A80&amp;tr=udp%3A%2F%2Fopen.demonii.com%3A1337&amp;tr=udp%3A%2F%2Ftracker.coppersurfer.tk%3A6969&amp;tr=udp%3A%2F%2Fexodus.desync.com%3A6969","seeders":0,"leechers":0,"uploader":"seanprince","files":-1,"time":1273914942,"description":"Later, With Jools Holland.s36eo5.(14th May 2010)[DTV-RIP-Divx]\n\nFirst Shown On BBC 2 On Friday 14th May 2010\n\n\nDescription:\n\nJoining Jools are James Murphy's LCD Soundsystem performing tracks from their third - and possibly final - album This Is Happening; from Melbourne, Australia, Crowded House, led by original member Neil Finn, with tracks from their new album Intriguer; Kelis, who first stormed the charts in 2000, performing tracks from her new Fleshtone album; and Brooklyn based five-piece The National, with music from their new High Violet long player. Plus Tracey Thorn, half of British duo Everything But The Girl, performs a number from her album Love and Its Opposite.\n\n\nCrowded House\n\nCrowded House release their sixth album Intriguer in June, and give us a taste of it on this week's show. It's the Australian rockers' fourth appearance on Later...\n\nLCD Soundsystem\n\nLCD Soundsystem return for the second time. They will be playing songs from their forthcoming third album This Is Happening, which James Murphy says will be their last.\n\nKelis\n\nKelis is back after a four year break (during which time she training as a cordon bleu chef!) with a new album Flesh Tone. The record sees her add a new dance angle to her repertoire.\n\nThe National\n\nThe National come to the studio for a second time to bring new tracks from their fifth album, High Violet, recorded in their own converted garage studio.\n\nTracey Thorn\n\nTracey Thorn's second solo album Love and its Opposite is released this month on Strange Feeling Records. She returns to the Later studio to play a track at the piano.\n\nPete Molinari\n\nPete Molinari, a country blues singer from Chatham in Kent, makes his debut on Later. His third album is titled A Train Bound For Glory and is released in June.\n\nSam Taylor-Wood\n\nSam Taylor-Wood comes to chat to us this week about the release of her film 'Nowhere Boy', which depicts the early years of The Beatle John Lennon's life.\n\n\nGeneral\n\nComplete name : Later.s36eo5.divx\nFormat : AVI\nFormat/Info : Audio Video Interleave\nFile size : 699 MiB\nDuration : 1h 2mn\nOverall bit rate : 1 566 Kbps\n\nVideo\nID : 0\nFormat : MPEG-4 Visual\nFormat settings, BVOP : Yes\nFormat settings, QPel : No\nFormat settings, GMC : No warppoints\nFormat settings, Matrix : Default (H.263)\nMuxing mode : Packed bitstream\nCodec ID : DX50\nCodec ID/Hint : DivX 5\nDuration : 1h 2mn\nBit rate : 1 300 Kbps\nWidth : 688 pixels\nHeight : 384 pixels\nDisplay aspect ratio : 16/9\nFrame rate : 25.000 fps\nResolution : 24 bits\nColorimetry : 4:2:0\nScan type : Progressive\nBits/(Pixel*Frame) : 0.197\nStream size : 580 MiB (83%)\nTitle : Video\nWriting library : DivX 6.8.2 (UTC 2008-05-17)\n\nAudio\nID : 1\nFormat : AC-3\nFormat/Info : Audio Coding 3\nCodec ID : 2000\nDuration : 1h 2mn\nBit rate mode : Constant\nBit rate : 256 Kbps\nChannel(s) : 2 channels\nChannel positions : L R\nSampling rate : 48.0 KHz\nStream size : 114 MiB (16%)\nAlignment : Split accross interleaves\nInterleave, duration : 40 ms (1.00 video frame)\nInterleave, preload duration : 500 ms ","torrent":{"xt":"urn:btih:1ec32aa9d7ea732cdda39fc6f05e56f02d0d88e4","amp;dn":"Later%2C+With+Jools+Holland.s36eo5.%2814th+May+2010%29%5BDTV-RIP-Divx%5D","amp;tr":["udp%3A%2F%2Ftracker.openbittorrent.com%3A80","udp%3A%2F%2Fopen.demonii.com%3A1337","udp%3A%2F%2Ftracker.coppersurfer.tk%3A6969","udp%3A%2F%2Fexodus.desync.com%3A6969"],"infoHash":"1ec32aa9d7ea732cdda39fc6f05e56f02d0d88e4","infoHashBuffer":{"type":"Buffer","data":[30,195,42,169,215,234,115,44,221,163,159,198,240,94,86,240,45,13,136,228]},"announce":[],"urlList":[]}}